<?xml version="1.0" encoding="UTF-8" standalone="no"?>
<!-- Created with Inkscape (http://www.inkscape.org/) -->

<svg
   width="564.4444mm"
   height="264.58334mm"
   viewBox="0 0 564.4444 264.58334"
   version="1.1"
   id="svg1"
   xml:space="preserve"
   xmlns="http://www.w3.org/2000/svg"
   xmlns:svg="http://www.w3.org/2000/svg">
  <defs id="defs1" />
  <g
     id="layer1"
     transform="translate(171.0972,20.108339)">
    <path
       style="display:inline;fill:#21abea;fill-opacity:1"
       d="m 71.956971,78.775362 c -2.455767,-1.688249 -3.70764,-5.737738 -2.414106,-7.809016 0.277996,-0.445142 5.014588,-3.013692 11.763345,-6.379003 6.213877,-3.098591 13.441083,-6.806529 16.060458,-8.239864 2.619375,-1.433336 6.350002,-3.449336 8.290272,-4.480002 1.94028,-1.030666 3.68653,-1.988963 3.88056,-2.129548 0.19403,-0.140586 1.30528,-0.778815 2.46944,-1.418286 1.16417,-0.639472 2.59292,-1.428313 3.175,-1.75298 0.58209,-0.324667 2.01084,-1.118417 3.175,-1.763889 1.16417,-0.645471 2.59292,-1.439222 3.175,-1.763889 0.58209,-0.324667 2.01084,-1.113508 3.175,-1.752979 1.16417,-0.639472 2.27542,-1.276406 2.46945,-1.415409 0.19403,-0.139004 1.62278,-0.939515 3.175,-1.778914 1.55222,-0.839399 3.53659,-1.920472 4.40972,-2.402384 0.87312,-0.481911 2.61937,-1.423852 3.88055,-2.0932 1.26118,-0.669349 2.61056,-1.414385 2.99862,-1.655635 3.88482,-2.415159 23.04378,-12.226601 30.16249,-15.446429 1.06716,-0.482678 2.68563,-1.216274 3.59662,-1.630213 0.91099,-0.413939 1.74615,-0.752616 1.85593,-0.752616 0.10977,0 0.87254,-0.306642 1.69505,-0.681428 8.00086,-3.645707 20.99787,-7.8679711 28.65934,-9.3103981 6.92724,-1.304191 8.70023,-1.4730457 15.34584,-1.4614945 5.91536,0.010282 7.28577,0.1195122 9.78132,0.779632 6.43683,1.7026619 9.92164,4.3379906 12.41068,9.3853716 2.03044,4.117386 2.54304,6.381525 2.56797,11.342485 0.0285,5.674938 -1.11464,11.550161 -3.77524,19.402778 -2.2463,6.629796 -2.77323,9.070812 -2.79524,12.949021 -0.0192,3.378039 0.0531,3.833128 0.68412,4.310309 1.48244,1.12096 3.88891,0.427165 7.76788,-2.23952 1.52481,-1.048264 9.60834,-7.153724 11.10573,-8.388107 3.55725,-2.932462 16.22745,-11.675351 19.57916,-13.510313 1.16417,-0.637347 2.56039,-1.469741 3.10272,-1.849765 1.60756,-1.126449 11.36096,-5.866287 14.8408,-7.212149 6.90347,-2.669983 13.83491,-4.518285 21.03842,-5.609996 7.9167,-1.199795 24.49242,-0.632713 28.67235,0.980927 2.92055,1.127467 3.13803,5.729954 0.40755,8.625109 -1.30344,1.382043 -2.28888,1.484573 -6.50833,0.67716 -5.86456,-1.122216 -16.2441,-1.023771 -22.74796,0.215754 -7.48392,1.426309 -16.55669,4.411993 -22.75416,7.487978 -8.86146,4.3982 -14.0885,7.706716 -28.22222,17.863583 -6.11188,4.392155 -11.98563,8.538528 -13.05278,9.214162 -5.67639,3.593832 -11.11475,5.261639 -14.72655,4.51626 -1.11672,-0.23046 -2.64367,-0.730536 -3.39323,-1.11128 -1.73079,-0.879166 -4.04536,-3.259578 -5.09494,-5.23989 -0.92957,-1.753895 -1.8325,-5.654069 -1.8325,-7.915477 0,-1.63935 1.53068,-9.814723 2.09345,-11.181149 0.57623,-1.399097 3.09779,-9.463409 4.11675,-13.165951 0.80842,-2.937518 0.9749,-4.265603 0.99499,-7.9375 0.022,-4.013062 -0.0502,-4.536654 -0.80271,-5.820834 -2.40559,-4.105473 -5.13682,-5.156374 -13.45803,-5.178271 -6.73701,-0.01773 -11.55577,0.657406 -19.75556,2.76786 -3.81459,0.981795 -11.59989,3.548415 -15.52222,5.117283 -2.71262,1.085008 -2.92289,1.172645 -5.64444,2.352601 -0.87313,0.378552 -2.54,1.088642 -3.70417,1.577977 -8.82962,3.711365 -36.64734,17.758346 -47.41103,23.940923 -1.62858,0.935437 -3.00544,1.700795 -3.05971,1.700795 -0.0543,0 -2.1868,1.190625 -4.73898,2.645834 -2.55217,1.455208 -4.71065,2.645833 -4.79661,2.645833 -0.086,0 -0.74845,0.37167 -1.4722,0.825934 -0.72375,0.454263 -2.90341,1.667055 -4.84369,2.695092 -1.94027,1.028037 -4.24215,2.266828 -5.11527,2.752869 -0.87313,0.486041 -3.41313,1.834125 -5.64445,2.995743 -2.231316,1.161618 -4.930066,2.586256 -5.997219,3.165861 -1.067152,0.579605 -5.92639,3.098729 -10.798306,5.598054 -9.424084,4.834616 -10.641159,5.218847 -12.494724,3.94459 z"
       id="path17" />
    <path
       style="display:inline;fill:#ff6dc3;fill-opacity:1"
       d="m 226.49209,212.17713 c -4.58208,-1.11463 -9.04588,-4.51754 -10.63328,-8.10612 -1.1262,-2.54597 -1.25792,-5.94903 -0.34641,-8.94997 2.00405,-6.59791 7.81957,-13.22856 17.55629,-20.01706 5.81558,-4.05466 17.88396,-11.44159 18.38104,-11.25084 0.25863,0.0993 0.38683,0.0455 0.28489,-0.11946 -0.10195,-0.16495 1.19949,-1.13859 2.89209,-2.16365 1.69259,-1.02506 5.48749,-3.44747 8.4331,-5.38312 5.32159,-3.49699 5.36285,-3.53426 6.48612,-5.85801 1.93398,-4.00089 4.20961,-9.29748 4.20961,-9.79798 0,-0.95418 -0.50973,-0.64756 -5.69466,3.42548 -6.88067,5.40514 -14.50917,9.16444 -20.69806,10.19993 -6.5923,1.10298 -13.28284,-2.32175 -16.08993,-8.23607 -0.65681,-1.38385 -1.3014,-3.03203 -1.43242,-3.66262 -0.15981,-0.76921 -0.44262,-1.14653 -0.85935,-1.14653 -0.34163,0 -2.03558,1.29213 -3.76433,2.87139 -10.55916,9.6461 -17.13486,13.43061 -23.39561,13.46488 -6.8216,0.0373 -10.78871,-5.37915 -9.59145,-13.09567 0.97311,-6.27182 3.98328,-12.94427 14.83055,-32.87393 5.50956,-10.1227 8.83971,-16.758747 8.83971,-17.615025 0,-1.020327 -0.96269,-0.939772 -3.72223,0.311465 -10.5059,4.763603 -22.93241,16.2851 -36.01258,33.38981 -0.72722,0.95096 -4.50657,5.94314 -8.39856,11.09373 -12.80455,16.94531 -14.12378,18.6234 -14.94225,19.00695 -2.07139,0.97068 -5.3261,0.12953 -6.94547,-1.79498 -0.98698,-1.17296 -1.01814,-1.61693 -0.32396,-4.61626 0.36172,-1.5629 -0.59902,-1.21183 -3.45465,1.26239 -7.37347,6.38862 -13.69858,9.25932 -18.46144,8.37886 -5.70683,-1.05496 -9.36589,-5.61573 -9.43222,-11.75662 -0.0371,-3.43513 -0.40507,-3.51402 -3.28977,-0.70536 -6.45693,6.28673 -13.181557,10.83659 -18.641268,12.61261 -2.58196,0.8399 -3.388378,0.94722 -6.086366,0.81002 -2.484929,-0.12636 -3.484765,-0.35042 -4.974259,-1.11468 -4.798094,-2.46191 -7.15677,-7.31135 -6.638955,-13.64969 0.327951,-4.0143 2.20054,-11.01811 4.174145,-15.61204 1.047813,-2.43898 0.545258,-2.66771 -2.406796,-1.09542 -4.34847,2.31602 -5.755974,2.95923 -8.350735,3.81613 -2.804494,0.92617 -2.371024,0.48383 -7.968871,8.13191 -4.28315,5.85186 -10.945567,12.37357 -16.607339,16.25661 -6.445772,4.42074 -11.918329,6.4737 -17.32493,6.49924 -5.386773,0.0254 -9.438907,-1.67293 -13.418283,-5.62405 -2.196696,-2.18109 -2.8674003,-3.12483 -3.7663127,-5.29949 -0.6023699,-1.45726 -1.3389212,-2.69627 -1.6396103,-2.75811 -0.3002652,-0.0617 -1.1454244,0.3647 -1.8781316,0.94767 -4.2701447,3.3975 -13.5632376,8.29317 -19.8530264,10.45873 -16.694415,5.74783 -32.850821,5.73891 -54.85694,-0.0303 -2.716389,-0.71214 -5.256389,-1.36003 -5.644444,-1.43975 -0.478461,-0.0983 -1.67668,0.64154 -3.722716,2.29856 -9.649672,7.81495 -23.047742,14.9776 -32.966172,17.62381 -5.41691,1.44522 -8.72667,1.9177 -13.58194,1.93887 -8.89633,0.0388 -15.49488,-2.36586 -20.28672,-7.39288 -2.16857,-2.27501 -3.46944,-4.76272 -4.29985,-8.22275 -0.5197,-2.16542 -0.54308,-2.8898 -0.17439,-5.40457 1.10414,-7.5312 4.51676,-13.66432 9.09659,-16.34827 3.77622,-2.21302 10.02557,-4.18701 15.66437,-4.94794 7.559,-1.02004 15.32459,0.0634 29.456941,4.10973 1.940277,0.55554 6.607034,1.89293 10.37057,2.97197 3.763536,1.07904 7.019694,1.9619 7.235907,1.9619 0.494952,0 8.992594,-9.15052 13.236017,-14.25294 4.043277,-4.86177 9.384616,-11.95738 12.772867,-16.9679 4.505295,-6.6624 10.183245,-15.93345 10.183245,-16.62737 0,-0.57349 -0.223333,-0.64606 -1.641129,-0.5333 -5.007708,0.39828 -21.873981,-1.556849 -30.102588,-3.489475 -20.66696,-4.85398 -33.10466,-14.220687 -37.45846,-28.209578 -1.15925,-3.724731 -1.16722,-11.455329 -0.0163,-15.830154 2.16839,-8.242481 7.33984,-16.445266 13.41895,-21.284694 9.091694,-7.237672 20.763589,-11.886287 33.574539,-13.371874 5.174205,-0.600013 16.496161,-0.518333 22.048609,0.159065 8.365594,1.0206 15.742187,2.709087 24.305032,5.563369 8.7661949,2.922066 11.509821,4.488213 11.4984636,6.563681 -0.00559,1.020702 -1.5692527,4.067559 -2.711719,5.283873 -1.7249186,1.836415 -2.4045646,1.822516 -7.6255546,-0.155945 -9.961035,-3.774671 -15.992778,-5.37252 -25.213735,-6.679286 -5.281282,-0.748447 -18.297393,-0.843767 -22.830262,-0.167192 -3.917382,0.584708 -9.191201,1.879583 -12.598438,3.093281 -3.859961,1.374963 -9.78982,4.55719 -12.466149,6.689892 -1.306811,1.041366 -2.536723,1.794073 -2.733139,1.672681 -0.196416,-0.121392 -0.258109,-0.06051 -0.137096,0.135293 0.282886,0.45772 -1.302035,1.963326 -1.693046,1.608319 -0.162234,-0.147295 -0.200587,-0.101429 -0.08523,0.101924 0.115357,0.203354 -0.420811,1.155854 -1.191484,2.116667 -4.539621,5.659636 -6.907541,13.584981 -5.971521,19.986463 0.52661,3.60153 1.41345,5.864036 3.356939,8.564216 1.625967,2.259034 1.985403,2.606251 5.296944,5.116881 9.376562,7.1088 31.19304,12.214587 50.968664,11.928375 l 7.224223,-0.104556 2.924935,-4.7625 C -26.099357,76.732081 -20.734243,68.803397 -14.29358,60.148608 2.8302931,37.138011 16.810589,23.221353 28.398618,17.650741 c 4.562764,-2.193417 7.345513,-2.921248 11.108931,-2.905554 7.015251,0.02926 13.478835,3.775326 16.253705,9.420087 5.215042,10.608663 0.144068,28.099677 -12.314825,42.476801 C 33.876107,77.68589 21.986621,86.305266 8.1138976,92.25667 c -9.4515861,4.054734 -21.2978996,7.005824 -33.4280086,8.32741 l -3.971067,0.43264 -1.568715,2.67289 c -2.068765,3.52491 -3.193087,5.01472 -3.544427,4.69662 -0.157855,-0.14291 -0.180345,-0.0736 -0.04998,0.15405 0.317627,0.55462 -0.311182,1.60343 -7.36605,12.28611 -7.080082,10.72085 -12.238927,17.52757 -19.36288,25.54791 -2.829738,3.18579 -5.144978,6.05255 -5.144978,6.37056 0,0.89325 11.846316,3.18446 20.108331,3.88918 18.850181,1.60784 34.732753,-3.08386 49.0361073,-14.48525 5.0795041,-4.04894 5.4680058,-4.56929 7.2482337,-9.70819 4.962717,-14.32564 15.268292,-28.68646 26.83841,-37.399337 9.26442,-6.976571 19.84866,-8.978647 27.871185,-5.272012 7.474131,3.453262 10.517836,11.319099 8.776468,22.680989 -0.289744,1.89049 -0.779108,4.31038 -1.087474,5.37754 -0.892537,3.08877 -0.943435,3.43158 -0.545965,3.67723 1.106516,0.68386 9.764428,-5.7422 16.483372,-12.23426 3.078382,-2.97444 3.147206,-3.09349 9.56109,-16.538542 1.669217,-3.499083 2.52995,-4.917904 3.15671,-5.203473 2.97317,-1.354669 7.88407,1.127912 7.88407,3.985593 0,0.504852 -3.77842,8.497222 -8.39648,17.760822 -8.495537,17.04159 -10.426025,21.16549 -12.433126,26.55958 -2.915611,7.8357 -3.70872,12.06163 -2.769394,14.75619 2.808897,8.05761 26.65054,-12.25651 39.80127,-33.91241 2.71396,-4.46921 6.90517,-12.98607 11.76035,-23.897956 1.93277,-4.343848 2.4409,-5.207864 3.29038,-5.594911 1.87917,-0.856206 4.6074,-0.121028 6.60589,1.780091 1.21174,1.152699 1.36966,1.478488 1.20337,2.482622 -0.23146,1.397704 -5.74678,13.417644 -13.48003,29.378034 -5.89458,12.16561 -8.0479,17.36249 -9.35348,22.57389 -0.82571,3.29595 -0.8299,6.06064 -0.0107,7.04774 2.80578,3.38076 16.09587,-7.78817 25.80228,-21.68413 4.49678,-6.43771 8.97136,-14.83884 13.9982,-26.28195 1.53422,-3.492497 3.71894,-8.46617 4.85494,-11.052605 1.6843,-3.834817 2.25801,-4.802184 3.10895,-5.242221 2.14874,-1.111159 6.29236,0.488902 7.42001,2.865242 0.58296,1.228502 0.57762,1.254914 -1.05389,5.215504 -1.42705,3.464257 -2.37125,5.626343 -5.43592,12.44742 -0.3487,0.77611 -1.04774,2.3995 -1.55341,3.60753 -2.15926,5.15835 -7.18165,15.9296 -7.61171,16.32441 -0.42268,0.38804 -2.05232,4.06601 -1.90628,4.30231 0.39064,0.63207 1.14454,-0.36229 2.77959,-3.66613 0.97014,-1.96029 2.20045,-4.11782 2.73403,-4.79451 0.53358,-0.6767 0.97014,-1.34817 0.97014,-1.49218 0,-0.50895 3.2399,-4.40226 3.58394,-4.30672 0.19198,0.0533 0.26151,-0.0447 0.1545,-0.21787 -0.32867,-0.5318 7.05301,-9.1116 12.65157,-14.70502 10.72846,-10.718637 20.17985,-16.919217 27.6146,-18.116548 4.93403,-0.794602 10.44694,1.748129 12.52114,5.77515 1.05328,2.044926 0.93861,4.421536 -0.35007,7.255654 -2.99027,6.576294 -4.84364,10.159304 -13.6283,26.346784 -2.39522,4.41368 -6.97746,13.60657 -8.04639,16.14269 -2.45831,5.83255 -2.58137,8.99584 -0.34996,8.99584 1.31645,0 5.55075,-2.56016 9.59341,-5.8004 6.14304,-4.92373 18.48317,-17.59937 19.85593,-20.39579 0.30889,-0.62925 1.42965,-2.99793 2.49057,-5.26374 4.97222,-10.61922 12.12281,-20.248605 19.87857,-26.769611 7.71713,-6.488534 14.56592,-9.905137 21.84565,-10.89798 7.28119,-0.99304 15.4076,2.36449 18.77308,7.756333 0.71153,1.139939 1.49493,2.079794 1.7409,2.088567 0.24596,0.0088 1.42192,-1.96162 2.61325,-4.378649 2.42169,-4.913283 2.68317,-5.130402 6.17846,-5.130402 2.7634,0 6.10691,1.915933 6.10691,3.499444 0,0.2993 -3.51835,7.611554 -7.81856,16.249453 -4.30021,8.637895 -9.31913,18.800895 -11.15316,22.584435 -1.83403,3.78354 -4.68099,9.65729 -6.32658,13.05278 -1.64559,3.39549 -3.07978,6.70784 -3.18709,7.36079 -0.18536,1.12781 -0.15696,1.16675 0.56803,0.77875 1.32864,-0.71107 11.70942,-8.81854 15.74653,-12.29817 8.016,-6.90907 7.66719,-6.48845 9.14748,-11.03057 7.25625,-22.26505 20.38879,-38.067937 36.08274,-43.419752 9.98684,-3.405623 18.6524,-0.940265 22.21818,6.321083 0.88496,1.802146 0.99048,2.392873 0.99048,5.544813 0,4.030311 -0.54689,6.13345 -2.75206,10.583333 -4.28694,8.650783 -12.18572,15.984093 -23.88265,22.172913 -4.49359,2.37754 -6.75021,3.33639 -16.75695,7.12011 l -7.76111,2.93461 -0.10373,2.71019 c -0.0691,1.80683 0.0869,3.28421 0.46827,4.43231 1.71487,5.16299 9.27313,6.39568 17.80352,2.9036 2.26165,-0.92586 7.28679,-3.9713 9.34861,-5.66564 3.95062,-3.24653 9.53992,-9.42433 11.73365,-12.9691 1.38201,-2.23314 2.58832,-3.35427 3.60911,-3.35427 1.43773,0 4.06463,1.87432 5.09784,3.63735 1.09112,1.86186 1.01847,2.13245 -1.65107,6.14973 -9.42763,14.1872 -24.55336,23.70904 -37.68655,23.72415 -8.94393,0.0103 -16.13032,-5.06678 -18.10468,-12.79067 -0.25966,-1.01582 -0.69238,-1.88847 -0.9616,-1.93922 -0.26921,-0.0507 -1.6801,0.95047 -3.13531,2.22493 -6.05586,5.3037 -13.99711,11.0611 -22.81796,16.54299 -3.93273,2.44408 -5.09657,3.34474 -5.44167,4.21113 -1.00264,2.51721 -8.51532,17.64281 -10.71016,21.56322 -5.70323,10.18709 -11.48998,17.66239 -18.00002,23.25237 -6.91381,5.93667 -14.15037,8.29187 -20.63253,6.71504 z m 9.75874,-10.58363 c 7.34441,-3.56983 13.64508,-11.21428 21.35557,-25.91017 2.71778,-5.17997 3.02245,-5.99722 2.23573,-5.99722 -0.65626,0 -14.78231,8.61704 -19.60047,11.95649 -8.43872,5.84885 -14.81667,13.22103 -14.81667,17.12639 0,1.03043 0.7948,3.35377 1.15559,3.37799 0.0435,0.003 0.71413,0.24244 1.49024,0.53225 2.1361,0.79767 5.12001,0.40162 8.18001,-1.08573 z m -351.76714,-29.73388 c 8.19768,-1.88158 16.868079,-5.92587 25.29341,-11.79807 1.947685,-1.35747 2.703186,-2.72266 1.506733,-2.72266 -0.286957,0 -1.676019,-0.37656 -3.086805,-0.8368 -6.711285,-2.18941 -12.203608,-3.70121 -17.381728,-4.78444 -17.56711,-3.67491 -29.95532,0.80811 -30.78468,11.14031 -0.24488,3.0506 0.12462,4.5492 1.49592,6.06706 1.44682,1.60146 3.67306,2.75317 6.61401,3.42166 3.24671,0.73799 12.16363,0.47225 16.34314,-0.48706 z m 91.431889,-6.97276 c -0.117226,-0.11722 -0.421496,-0.12975 -0.676158,-0.0279 -0.281422,0.11262 -0.197829,0.19621 0.213137,0.21314 0.371886,0.0153 0.580246,-0.0681 0.463021,-0.18529 z m 54.52264,-10.396 c 6.320774,-2.10725 13.692714,-7.73991 19.405626,-14.82719 1.824936,-2.26397 1.732224,-2.61082 -0.832754,-3.11545 -7.953889,-1.56483 -14.492919,-5.79032 -16.959773,-10.95933 -1.210321,-2.53609 -1.389481,-3.40031 -1.396815,-6.73785 -0.0046,-2.10815 -0.1227,-2.78715 -0.484641,-2.78715 -0.666366,0 -5.839678,8.34462 -7.959777,12.83923 -3.423239,7.25726 -4.764828,12.56307 -4.499646,17.7955 0.21278,4.19846 1.652492,6.80457 4.443403,8.04328 1.578258,0.70048 5.815394,0.57209 8.284377,-0.25104 z M 249.0611,144.26931 c 4.51448,-1.54985 9.43158,-4.36123 15.34583,-8.77409 7.3793,-5.50599 20.6354,-20.02617 22.65221,-24.81229 1.44926,-3.43926 2.31986,-8.06685 2.15656,-11.462975 -0.12413,-2.58143 -0.31872,-3.400454 -1.18618,-4.99259 -3.12209,-5.730252 -9.86902,-6.543825 -18.32438,-2.209628 -12.1457,6.225863 -24.10135,21.970033 -28.84151,37.980873 -1.40814,4.75626 -1.56689,10.14857 -0.36511,12.40207 1.23826,2.32192 2.39942,3.05302 4.50564,2.83687 0.97013,-0.0996 2.79576,-0.53527 4.05694,-0.96824 z m -362.39829,-2.66578 c -0.11723,-0.11722 -0.4215,-0.12976 -0.67616,-0.0279 -0.28142,0.11262 -0.19783,0.19621 0.21314,0.21314 0.37188,0.0153 0.58024,-0.0681 0.46302,-0.18529 z m 172.46292,-16.632 c 4.225888,-9.43549 5.82832,-19.84392 3.697968,-24.01975 -1.125098,-2.205377 -2.529836,-2.960025 -5.160052,-2.772065 -3.959073,0.282923 -8.441154,3.184585 -12.172979,7.880695 -2.722233,3.42565 -4.107501,6.18205 -4.622504,9.19786 -0.853724,4.99933 0.433522,7.67204 4.710072,9.77952 3.124903,1.53995 4.71847,1.87332 9.194968,1.92356 L 58.217235,127 Z m -27.487514,-3.68212 c -0.112616,-0.28142 -0.196209,-0.19783 -0.213136,0.21314 -0.01532,0.37188 0.06806,0.58024 0.185285,0.46302 0.117226,-0.11723 0.129758,-0.4215 0.02785,-0.67616 z m 290.289124,-2.00703 c 0.18433,-0.17011 1.28764,-0.63412 2.45181,-1.03114 7.66822,-2.61512 16.08802,-6.97462 21.87222,-11.32472 3.17676,-2.38913 7.98043,-7.369999 9.46545,-9.814602 2.36666,-3.89595 3.37789,-8.412828 2.32421,-10.381644 -0.94337,-1.762695 -5.37162,-2.23375 -9.48442,-1.008905 -2.76384,0.823106 -7.21822,3.414134 -10.53581,6.128471 -5.48279,4.485839 -11.10672,12.02307 -15.10113,20.23864 -1.43684,2.95526 -2.70829,5.85244 -2.82544,6.43819 -0.19012,0.95058 -0.12109,1.065 0.64249,1.065 0.47052,0 1.0063,-0.13918 1.19062,-0.30929 z M 226.01141,91.986804 c -0.0979,-0.242535 -0.17794,-0.0441 -0.17794,0.440972 0,0.48507 0.0801,0.683507 0.17794,0.440972 0.0979,-0.242534 0.0979,-0.639409 0,-0.881944 z M -17.815267,89.55414 C 2.0267515,85.551173 16.956067,78.441657 29.266281,67.133353 40.746869,56.587152 47.235674,45.011397 47.337359,34.895312 47.40172,28.492421 44.819678,25.153773 39.741801,25.074057 31.120392,24.938711 17.56262,35.887075 1.8674183,55.658917 -6.9584908,66.77725 -20.795198,86.243627 -21.856664,89.035495 c -0.524587,1.379768 -0.342728,1.403107 4.041397,0.518645 z M 180.26944,89.252776 c 0,-0.194028 -0.16812,-0.352778 -0.3736,-0.352778 -0.20548,0 -0.27548,0.15875 -0.15557,0.352778 0.11992,0.194028 0.28804,0.352778 0.3736,0.352778 0.0856,0 0.15557,-0.15875 0.15557,-0.352778 z M 56.701683,88.686862 c -0.117225,-0.117225 -0.421496,-0.129758 -0.676158,-0.02785 -0.281422,0.112616 -0.197829,0.196209 0.213137,0.213136 0.371887,0.01532 0.580246,-0.06806 0.463021,-0.185285 z"
       id="path16" />
    <path
       style="display:inline;fill:#21acec;fill-opacity:1"
       d="m -97.706365,222.54141 c -1.455257,-0.41754 -2.694845,-1.6722 -3.582205,-3.62577 -0.80353,-1.76902 -0.82594,-2.62771 -0.0958,-3.67016 0.59718,-0.8526 3.798922,-3.01452 7.369089,-4.97587 1.164167,-0.63955 2.354792,-1.36308 2.645834,-1.60784 1.017009,-0.85526 20.876694,-12.614 27.693053,-16.3968 1.164166,-0.64607 2.592916,-1.4403 3.175,-1.76497 3.764408,-2.09966 5.562968,-3.05397 10.759721,-5.70905 17.315143,-8.84651 27.468317,-12.23693 33.63826,-11.23275 8.8875083,1.44648 12.9921176,9.09288 10.988125,20.46958 -1.254807,7.12356 -0.197036,11.02118 3.5204451,12.97195 2.48562065,1.30435 8.0432735,0.22905 13.9185549,-2.69297 3.938677,-1.95887 9.597408,-4.99977 10.606831,-5.69993 1.73245,-1.20166 13.333819,-7.56781 19.226387,-10.55031 6.668887,-3.37543 8.617412,-4.25228 13.758332,-6.19138 1.940278,-0.73184 3.845278,-1.45655 4.233333,-1.61046 10.109598,-4.0095 25.783209,-6.91685 41.980555,-7.78712 15.51367,-0.83353 58.0566,0.50996 80.96249,2.55677 4.84378,0.43283 5.61765,0.7895 6.57185,3.02892 0.65539,1.53814 0.60889,2.57121 -0.20075,4.46004 -1.13075,2.63793 -1.82697,2.82609 -8.79303,2.37643 -19.71437,-1.27256 -33.69744,-1.87183 -49.14228,-2.10607 -15.6045,-0.23666 -29.32223,0.0224 -35.042727,0.6619 -5.184821,0.57958 -10.903756,1.37993 -14.111109,1.97481 -9.572628,1.77547 -20.310333,4.96217 -27.163887,8.06158 -0.582083,0.26324 -2.026161,0.88238 -3.209061,1.37586 -3.228203,1.34675 -12.005583,5.89554 -19.285449,9.9945 -1.506426,0.8482 -3.411425,1.91737 -4.233333,2.37593 -0.821907,0.45856 -2.367502,1.32614 -3.434655,1.92796 -3.934351,2.21876 -11.895163,6.00376 -14.463887,6.87692 -8.0751054,2.74489 -14.1836019,2.66442 -19.1607848,-0.2524 -2.1164012,-1.24029 -5.2860512,-4.74877 -6.3321122,-7.00899 -1.861078,-4.02123 -2.046282,-7.68566 -0.76192,-15.07523 0.641796,-3.69257 0.552413,-5.59167 -0.352977,-7.49964 -0.794218,-1.67369 -2.091511,-2.19274 -4.888743,-1.95599 -2.054374,0.17388 -7.505167,1.76584 -10.008164,2.923 -0.611406,0.28265 -1.198669,0.51392 -1.305027,0.51392 -0.745428,0 -15.473946,7.33284 -21.043045,10.47663 -0.679097,0.38335 -2.107847,1.18362 -3.174999,1.77837 -1.892438,1.05471 -4.736935,2.67796 -7.584722,4.32832 -3.415841,1.97957 -17.213391,10.16511 -20.016367,11.87492 -1.69567,1.03436 -3.154531,1.88065 -3.241914,1.88065 -0.08738,0 -1.641832,0.92486 -3.454332,2.05524 -2.625814,1.63761 -5.473945,3.06075 -5.707388,2.85183 -0.01955,-0.0175 -0.585299,-0.18955 -1.257212,-0.38233 z"
       id="path1" />
  </g>
</svg>